<svg width="97" height="68" viewBox="0 0 97 68" fill="none" xmlns="http://www.w3.org/2000/svg">
<path d="M32.9766 5.5L40 9.2832V29.8613L32.9961 34H7.5L7.5 62.5H5.5L5.5 5.5L32.9766 5.5Z" stroke="white" stroke-width="11"/>
<path d="M84.8428 62L83.9961 62.5H61.9609L61.0859 62H84.8428ZM58 54V60.2363L55.5 58.8076V54H58ZM91 36.4844V58.3613L89 59.543V35.1836L91 36.4844ZM84.8701 32.5L87.1777 34H63.5039L60.9658 32.5H84.8701ZM59 31.3379L56.5 29.8613V9.26465L59 7.90039V31.3379ZM91 9.48438V20.0205L89.9365 19.3496L89.5 19.0732V8.50879L91 9.48438ZM84.8701 5.5L85.6396 6H62.4854L63.4023 5.5H84.8701Z" stroke="#D94B04" stroke-width="11"/>
</svg>
